<svg width="401" height="123" viewBox="0 0 401 123" fill="none" xmlns="http://www.w3.org/2000/svg">
<circle cx="2.5" cy="2.5" r="2.5" fill="#62D2A2" fill-opacity="0.2"/>
<circle cx="2.5" cy="16.5" r="2.5" fill="#62D2A2" fill-opacity="0.2"/>
<circle cx="2.5" cy="30.5" r="2.5" fill="#62D2A2" fill-opacity="0.2"/>
<circle cx="2.5" cy="44.5" r="2.5" fill="#62D2A2" fill-opacity="0.2"/>
<circle cx="2.5" cy="58.5" r="2.5" fill="#62D2A2" fill-opacity="0.2"/>
<circle cx="2.5" cy="72.5" r="2.5" fill="#62D2A2" fill-opacity="0.2"/>
<circle cx="2.5" cy="86.5" r="2.5" fill="#62D2A2" fill-opacity="0.2"/>
<circle cx="2.5" cy="100.5" r="2.5" fill="#62D2A2" fill-opacity="0.2"/>
<circle cx="2.5" cy="114.5" r="2.5" fill="#62D2A2" fill-opacity="0.2"/>
<circle cx="17.5" cy="2.5" r="2.5" fill="#62D2A2" fill-opacity="0.2"/>
<circle cx="17.5" cy="16.5" r="2.5" fill="#62D2A2" fill-opacity="0.2"/>
<circle cx="17.5" cy="30.5" r="2.5" fill="#62D2A2" fill-opacity="0.2"/>
<circle cx="17.5" cy="44.5" r="2.5" fill="#62D2A2" fill-opacity="0.2"/>
<circle cx="17.5" cy="58.5" r="2.5" fill="#62D2A2" fill-opacity="0.2"/>
<circle cx="17.5" cy="72.5" r="2.5" fill="#62D2A2" fill-opacity="0.2"/>
<circle cx="17.5" cy="86.5" r="2.5" fill="#62D2A2" fill-opacity="0.2"/>
<circle cx="17.5" cy="100.5" r="2.5" fill="#62D2A2" fill-opacity="0.2"/>
<circle cx="17.5" cy="114.5" r="2.5" fill="#62D2A2" fill-opacity="0.2"/>
<circle cx="32.5" cy="2.5" r="2.5" fill="#62D2A2" fill-opacity="0.2"/>
<circle cx="32.5" cy="16.5" r="2.5" fill="#62D2A2" fill-opacity="0.2"/>
<circle cx="32.5" cy="30.5" r="2.5" fill="#62D2A2" fill-opacity="0.2"/>
<circle cx="32.5" cy="44.5" r="2.5" fill="#62D2A2" fill-opacity="0.2"/>
<circle cx="32.5" cy="58.5" r="2.5" fill="#62D2A2" fill-opacity="0.2"/>
<circle cx="32.5" cy="72.5" r="2.5" fill="#62D2A2" fill-opacity="0.2"/>
<circle cx="32.5" cy="86.5" r="2.5" fill="#62D2A2" fill-opacity="0.2"/>
<circle cx="32.5" cy="100.5" r="2.5" fill="#62D2A2" fill-opacity="0.2"/>
<circle cx="32.5" cy="114.5" r="2.5" fill="#62D2A2" fill-opacity="0.2"/>
<circle cx="47.5" cy="2.5" r="2.5" fill="#62D2A2" fill-opacity="0.2"/>
<circle cx="47.5" cy="16.5" r="2.5" fill="#62D2A2" fill-opacity="0.2"/>
<circle cx="47.5" cy="30.5" r="2.5" fill="#62D2A2" fill-opacity="0.2"/>
<circle cx="47.5" cy="44.5" r="2.5" fill="#62D2A2" fill-opacity="0.2"/>
<circle cx="47.5" cy="58.5" r="2.5" fill="#62D2A2" fill-opacity="0.2"/>
<circle cx="47.5" cy="72.5" r="2.5" fill="#62D2A2" fill-opacity="0.2"/>
<circle cx="47.5" cy="86.5" r="2.5" fill="#62D2A2" fill-opacity="0.2"/>
<circle cx="47.5" cy="100.5" r="2.5" fill="#62D2A2" fill-opacity="0.2"/>
<circle cx="47.5" cy="114.5" r="2.5" fill="#62D2A2" fill-opacity="0.2"/>
<circle cx="62.5" cy="2.5" r="2.5" fill="#62D2A2" fill-opacity="0.2"/>
<circle cx="62.5" cy="16.5" r="2.5" fill="#62D2A2" fill-opacity="0.2"/>
<circle cx="62.5" cy="30.5" r="2.5" fill="#62D2A2" fill-opacity="0.2"/>
<circle cx="62.5" cy="44.5" r="2.5" fill="#62D2A2" fill-opacity="0.2"/>
<circle cx="62.5" cy="58.5" r="2.5" fill="#62D2A2" fill-opacity="0.2"/>
<circle cx="62.5" cy="72.5" r="2.5" fill="#62D2A2" fill-opacity="0.2"/>
<circle cx="62.5" cy="86.5" r="2.5" fill="#62D2A2" fill-opacity="0.2"/>
<circle cx="62.5" cy="100.5" r="2.5" fill="#62D2A2" fill-opacity="0.2"/>
<circle cx="62.5" cy="114.5" r="2.5" fill="#62D2A2" fill-opacity="0.2"/>
<circle cx="77.5" cy="2.5" r="2.5" fill="#62D2A2" fill-opacity="0.2"/>
<circle cx="77.5" cy="16.5" r="2.5" fill="#62D2A2" fill-opacity="0.2"/>
<circle cx="77.5" cy="30.5" r="2.5" fill="#62D2A2" fill-opacity="0.2"/>
<circle cx="77.5" cy="44.5" r="2.5" fill="#62D2A2" fill-opacity="0.2"/>
<circle cx="77.5" cy="58.5" r="2.5" fill="#62D2A2" fill-opacity="0.2"/>
<circle cx="77.5" cy="72.5" r="2.5" fill="#62D2A2" fill-opacity="0.2"/>
<circle cx="77.5" cy="86.5" r="2.5" fill="#62D2A2" fill-opacity="0.2"/>
<circle cx="77.5" cy="100.5" r="2.5" fill="#62D2A2" fill-opacity="0.2"/>
<circle cx="77.5" cy="114.5" r="2.5" fill="#62D2A2" fill-opacity="0.2"/>
<circle cx="92.5" cy="2.5" r="2.5" fill="#62D2A2" fill-opacity="0.2"/>
<circle cx="92.5" cy="16.5" r="2.5" fill="#62D2A2" fill-opacity="0.2"/>
<circle cx="92.5" cy="30.5" r="2.5" fill="#62D2A2" fill-opacity="0.2"/>
<circle cx="92.5" cy="44.5" r="2.5" fill="#62D2A2" fill-opacity="0.2"/>
<circle cx="92.5" cy="58.5" r="2.5" fill="#62D2A2" fill-opacity="0.2"/>
<circle cx="92.5" cy="72.5" r="2.5" fill="#62D2A2" fill-opacity="0.2"/>
<circle cx="92.5" cy="86.5" r="2.5" fill="#62D2A2" fill-opacity="0.2"/>
<circle cx="92.5" cy="100.5" r="2.5" fill="#62D2A2" fill-opacity="0.2"/>
<circle cx="92.5" cy="114.5" r="2.5" fill="#62D2A2" fill-opacity="0.2"/>
<circle cx="107.5" cy="2.5" r="2.5" fill="#62D2A2" fill-opacity="0.2"/>
<circle cx="107.5" cy="16.5" r="2.5" fill="#62D2A2" fill-opacity="0.2"/>
<circle cx="107.5" cy="30.5" r="2.5" fill="#62D2A2" fill-opacity="0.2"/>
<circle cx="107.5" cy="44.5" r="2.5" fill="#62D2A2" fill-opacity="0.2"/>
<circle cx="107.5" cy="58.5" r="2.5" fill="#62D2A2" fill-opacity="0.2"/>
<circle cx="107.5" cy="72.5" r="2.5" fill="#62D2A2" fill-opacity="0.2"/>
<circle cx="107.5" cy="86.5" r="2.5" fill="#62D2A2" fill-opacity="0.2"/>
<circle cx="107.5" cy="100.5" r="2.5" fill="#62D2A2" fill-opacity="0.2"/>
<circle cx="107.5" cy="114.5" r="2.5" fill="#62D2A2" fill-opacity="0.2"/>
<circle cx="122.5" cy="2.5" r="2.5" fill="#62D2A2" fill-opacity="0.2"/>
<circle cx="122.5" cy="16.5" r="2.5" fill="#62D2A2" fill-opacity="0.2"/>
<circle cx="122.5" cy="30.5" r="2.5" fill="#62D2A2" fill-opacity="0.2"/>
<circle cx="122.5" cy="44.5" r="2.5" fill="#62D2A2" fill-opacity="0.2"/>
<circle cx="122.5" cy="58.5" r="2.5" fill="#62D2A2" fill-opacity="0.2"/>
<circle cx="122.5" cy="72.5" r="2.5" fill="#62D2A2" fill-opacity="0.2"/>
<circle cx="122.5" cy="86.5" r="2.5" fill="#62D2A2" fill-opacity="0.2"/>
<circle cx="122.5" cy="100.5" r="2.5" fill="#62D2A2" fill-opacity="0.2"/>
<circle cx="122.5" cy="114.5" r="2.5" fill="#62D2A2" fill-opacity="0.2"/>
<circle cx="137.5" cy="2.5" r="2.5" fill="#62D2A2" fill-opacity="0.2"/>
<circle cx="137.5" cy="16.5" r="2.5" fill="#62D2A2" fill-opacity="0.2"/>
<circle cx="137.5" cy="30.5" r="2.5" fill="#62D2A2" fill-opacity="0.2"/>
<circle cx="137.5" cy="44.5" r="2.5" fill="#62D2A2" fill-opacity="0.2"/>
<circle cx="137.5" cy="58.5" r="2.5" fill="#62D2A2" fill-opacity="0.2"/>
<circle cx="137.5" cy="72.5" r="2.5" fill="#62D2A2" fill-opacity="0.2"/>
<circle cx="137.5" cy="86.5" r="2.5" fill="#62D2A2" fill-opacity="0.2"/>
<circle cx="137.5" cy="100.5" r="2.5" fill="#62D2A2" fill-opacity="0.2"/>
<circle cx="137.5" cy="114.5" r="2.5" fill="#62D2A2" fill-opacity="0.2"/>
<circle cx="152.5" cy="2.5" r="2.5" fill="#62D2A2" fill-opacity="0.2"/>
<circle cx="152.5" cy="16.5" r="2.5" fill="#62D2A2" fill-opacity="0.2"/>
<circle cx="152.5" cy="30.5" r="2.5" fill="#62D2A2" fill-opacity="0.2"/>
<circle cx="152.5" cy="44.5" r="2.5" fill="#62D2A2" fill-opacity="0.2"/>
<circle cx="152.5" cy="58.5" r="2.5" fill="#62D2A2" fill-opacity="0.2"/>
<circle cx="152.5" cy="72.5" r="2.5" fill="#62D2A2" fill-opacity="0.2"/>
<circle cx="152.5" cy="86.5" r="2.5" fill="#62D2A2" fill-opacity="0.2"/>
<circle cx="152.5" cy="100.5" r="2.5" fill="#62D2A2" fill-opacity="0.2"/>
<circle cx="152.5" cy="114.5" r="2.5" fill="#62D2A2" fill-opacity="0.2"/>
<circle cx="167.5" cy="2.5" r="2.5" fill="#62D2A2" fill-opacity="0.2"/>
<circle cx="167.5" cy="16.5" r="2.5" fill="#62D2A2" fill-opacity="0.2"/>
<circle cx="167.5" cy="30.5" r="2.5" fill="#62D2A2" fill-opacity="0.2"/>
<circle cx="167.5" cy="44.5" r="2.5" fill="#62D2A2" fill-opacity="0.2"/>
<circle cx="167.5" cy="58.5" r="2.5" fill="#62D2A2" fill-opacity="0.2"/>
<circle cx="167.5" cy="72.5" r="2.5" fill="#62D2A2" fill-opacity="0.2"/>
<circle cx="167.5" cy="86.5" r="2.5" fill="#62D2A2" fill-opacity="0.2"/>
<circle cx="167.5" cy="100.5" r="2.5" fill="#62D2A2" fill-opacity="0.2"/>
<circle cx="167.5" cy="114.5" r="2.5" fill="#62D2A2" fill-opacity="0.2"/>
<circle cx="182.5" cy="2.5" r="2.5" fill="#62D2A2" fill-opacity="0.2"/>
<circle cx="182.5" cy="16.5" r="2.5" fill="#62D2A2" fill-opacity="0.2"/>
<circle cx="182.5" cy="30.5" r="2.5" fill="#62D2A2" fill-opacity="0.2"/>
<circle cx="182.5" cy="44.5" r="2.5" fill="#62D2A2" fill-opacity="0.2"/>
<circle cx="182.5" cy="58.5" r="2.5" fill="#62D2A2" fill-opacity="0.2"/>
<circle cx="182.5" cy="72.5" r="2.5" fill="#62D2A2" fill-opacity="0.2"/>
<circle cx="182.5" cy="86.5" r="2.5" fill="#62D2A2" fill-opacity="0.2"/>
<circle cx="182.5" cy="100.5" r="2.5" fill="#62D2A2" fill-opacity="0.2"/>
<circle cx="182.5" cy="114.5" r="2.5" fill="#62D2A2" fill-opacity="0.2"/>
<circle cx="197.5" cy="2.5" r="2.5" fill="#62D2A2" fill-opacity="0.2"/>
<circle cx="197.5" cy="16.5" r="2.5" fill="#62D2A2" fill-opacity="0.2"/>
<circle cx="197.5" cy="30.5" r="2.5" fill="#62D2A2" fill-opacity="0.2"/>
<circle cx="197.5" cy="44.5" r="2.5" fill="#62D2A2" fill-opacity="0.2"/>
<circle cx="197.5" cy="58.5" r="2.5" fill="#62D2A2" fill-opacity="0.2"/>
<circle cx="197.5" cy="72.5" r="2.5" fill="#62D2A2" fill-opacity="0.2"/>
<circle cx="197.5" cy="86.5" r="2.5" fill="#62D2A2" fill-opacity="0.2"/>
<circle cx="197.5" cy="100.5" r="2.5" fill="#62D2A2" fill-opacity="0.2"/>
<circle cx="197.5" cy="114.5" r="2.5" fill="#62D2A2" fill-opacity="0.2"/>
<circle cx="212.5" cy="2.5" r="2.5" fill="#62D2A2" fill-opacity="0.2"/>
<circle cx="212.5" cy="16.5" r="2.5" fill="#62D2A2" fill-opacity="0.2"/>
<circle cx="212.5" cy="30.5" r="2.5" fill="#62D2A2" fill-opacity="0.2"/>
<circle cx="212.5" cy="44.5" r="2.5" fill="#62D2A2" fill-opacity="0.2"/>
<circle cx="212.5" cy="58.5" r="2.5" fill="#62D2A2" fill-opacity="0.2"/>
<circle cx="212.5" cy="72.5" r="2.5" fill="#62D2A2" fill-opacity="0.2"/>
<circle cx="212.5" cy="86.5" r="2.5" fill="#62D2A2" fill-opacity="0.2"/>
<circle cx="212.5" cy="100.5" r="2.5" fill="#62D2A2" fill-opacity="0.2"/>
<circle cx="212.5" cy="114.5" r="2.5" fill="#62D2A2" fill-opacity="0.2"/>
<circle cx="227.5" cy="2.5" r="2.5" fill="#62D2A2" fill-opacity="0.2"/>
<circle cx="227.5" cy="16.5" r="2.5" fill="#62D2A2" fill-opacity="0.2"/>
<circle cx="227.5" cy="30.5" r="2.5" fill="#62D2A2" fill-opacity="0.2"/>
<circle cx="227.5" cy="44.5" r="2.5" fill="#62D2A2" fill-opacity="0.2"/>
<circle cx="227.5" cy="58.5" r="2.5" fill="#62D2A2" fill-opacity="0.2"/>
<circle cx="227.5" cy="72.5" r="2.5" fill="#62D2A2" fill-opacity="0.2"/>
<circle cx="227.5" cy="86.5" r="2.5" fill="#62D2A2" fill-opacity="0.2"/>
<circle cx="227.5" cy="100.5" r="2.5" fill="#62D2A2" fill-opacity="0.2"/>
<circle cx="227.5" cy="114.5" r="2.5" fill="#62D2A2" fill-opacity="0.2"/>
<circle cx="242.5" cy="2.5" r="2.5" fill="#62D2A2" fill-opacity="0.2"/>
<circle cx="242.5" cy="16.5" r="2.5" fill="#62D2A2" fill-opacity="0.2"/>
<circle cx="242.5" cy="30.5" r="2.5" fill="#62D2A2" fill-opacity="0.2"/>
<circle cx="242.5" cy="44.5" r="2.5" fill="#62D2A2" fill-opacity="0.2"/>
<circle cx="242.5" cy="58.5" r="2.5" fill="#62D2A2" fill-opacity="0.2"/>
<circle cx="242.5" cy="72.5" r="2.5" fill="#62D2A2" fill-opacity="0.2"/>
<circle cx="242.5" cy="86.5" r="2.5" fill="#62D2A2" fill-opacity="0.2"/>
<circle cx="242.5" cy="100.5" r="2.5" fill="#62D2A2" fill-opacity="0.2"/>
<circle cx="242.5" cy="114.5" r="2.5" fill="#62D2A2" fill-opacity="0.2"/>
<circle cx="257.5" cy="2.5" r="2.5" fill="#62D2A2" fill-opacity="0.2"/>
<circle cx="257.5" cy="16.5" r="2.5" fill="#62D2A2" fill-opacity="0.2"/>
<circle cx="257.5" cy="30.5" r="2.5" fill="#62D2A2" fill-opacity="0.2"/>
<circle cx="257.5" cy="44.5" r="2.5" fill="#62D2A2" fill-opacity="0.2"/>
<circle cx="257.5" cy="58.5" r="2.5" fill="#62D2A2" fill-opacity="0.2"/>
<circle cx="257.5" cy="72.5" r="2.5" fill="#62D2A2" fill-opacity="0.2"/>
<circle cx="257.5" cy="86.5" r="2.5" fill="#62D2A2" fill-opacity="0.2"/>
<circle cx="257.5" cy="100.5" r="2.5" fill="#62D2A2" fill-opacity="0.2"/>
<circle cx="257.5" cy="114.5" r="2.5" fill="#62D2A2" fill-opacity="0.2"/>
<circle cx="272.5" cy="2.5" r="2.5" fill="#62D2A2" fill-opacity="0.2"/>
<circle cx="272.5" cy="16.5" r="2.5" fill="#62D2A2" fill-opacity="0.2"/>
<circle cx="272.5" cy="30.5" r="2.5" fill="#62D2A2" fill-opacity="0.2"/>
<circle cx="272.5" cy="44.5" r="2.5" fill="#62D2A2" fill-opacity="0.2"/>
<circle cx="272.5" cy="58.5" r="2.5" fill="#62D2A2" fill-opacity="0.2"/>
<circle cx="272.5" cy="72.5" r="2.5" fill="#62D2A2" fill-opacity="0.2"/>
<circle cx="272.5" cy="86.5" r="2.5" fill="#62D2A2" fill-opacity="0.2"/>
<circle cx="272.5" cy="100.5" r="2.5" fill="#62D2A2" fill-opacity="0.2"/>
<circle cx="272.5" cy="114.5" r="2.5" fill="#62D2A2" fill-opacity="0.2"/>
<circle cx="287.5" cy="2.5" r="2.5" fill="#62D2A2" fill-opacity="0.2"/>
<circle cx="287.5" cy="16.5" r="2.5" fill="#62D2A2" fill-opacity="0.2"/>
<circle cx="287.5" cy="30.5" r="2.5" fill="#62D2A2" fill-opacity="0.2"/>
<circle cx="287.5" cy="44.5" r="2.5" fill="#62D2A2" fill-opacity="0.2"/>
<circle cx="287.5" cy="58.5" r="2.5" fill="#62D2A2" fill-opacity="0.2"/>
<circle cx="287.5" cy="72.5" r="2.5" fill="#62D2A2" fill-opacity="0.2"/>
<circle cx="287.5" cy="86.5" r="2.5" fill="#62D2A2" fill-opacity="0.2"/>
<circle cx="287.5" cy="100.5" r="2.5" fill="#62D2A2" fill-opacity="0.2"/>
<circle cx="287.5" cy="114.5" r="2.5" fill="#62D2A2" fill-opacity="0.2"/>
<circle cx="302.5" cy="2.5" r="2.5" fill="#62D2A2" fill-opacity="0.2"/>
<circle cx="302.5" cy="16.5" r="2.5" fill="#62D2A2" fill-opacity="0.2"/>
<circle cx="302.5" cy="30.5" r="2.5" fill="#62D2A2" fill-opacity="0.2"/>
<circle cx="302.5" cy="44.5" r="2.5" fill="#62D2A2" fill-opacity="0.2"/>
<circle cx="302.5" cy="58.5" r="2.5" fill="#62D2A2" fill-opacity="0.2"/>
<circle cx="302.5" cy="72.5" r="2.5" fill="#62D2A2" fill-opacity="0.2"/>
<circle cx="302.5" cy="86.5" r="2.5" fill="#62D2A2" fill-opacity="0.2"/>
<circle cx="302.5" cy="100.5" r="2.5" fill="#62D2A2" fill-opacity="0.2"/>
<circle cx="302.5" cy="114.5" r="2.5" fill="#62D2A2" fill-opacity="0.2"/>
<circle cx="317.5" cy="2.5" r="2.5" fill="#62D2A2" fill-opacity="0.2"/>
<circle cx="317.5" cy="16.5" r="2.5" fill="#62D2A2" fill-opacity="0.2"/>
<circle cx="317.5" cy="30.5" r="2.5" fill="#62D2A2" fill-opacity="0.2"/>
<circle cx="317.5" cy="44.5" r="2.5" fill="#62D2A2" fill-opacity="0.2"/>
<circle cx="317.5" cy="58.5" r="2.5" fill="#62D2A2" fill-opacity="0.2"/>
<circle cx="317.5" cy="72.5" r="2.5" fill="#62D2A2" fill-opacity="0.2"/>
<circle cx="317.5" cy="86.5" r="2.5" fill="#62D2A2" fill-opacity="0.2"/>
<circle cx="317.5" cy="100.5" r="2.5" fill="#62D2A2" fill-opacity="0.2"/>
<circle cx="317.5" cy="114.5" r="2.5" fill="#62D2A2" fill-opacity="0.2"/>
<circle cx="332.5" cy="2.5" r="2.5" fill="#62D2A2" fill-opacity="0.2"/>
<circle cx="332.5" cy="16.5" r="2.5" fill="#62D2A2" fill-opacity="0.2"/>
<circle cx="332.5" cy="30.5" r="2.5" fill="#62D2A2" fill-opacity="0.2"/>
<circle cx="332.5" cy="44.5" r="2.5" fill="#62D2A2" fill-opacity="0.2"/>
<circle cx="332.5" cy="58.5" r="2.5" fill="#62D2A2" fill-opacity="0.2"/>
<circle cx="332.5" cy="72.5" r="2.5" fill="#62D2A2" fill-opacity="0.2"/>
<circle cx="332.5" cy="86.5" r="2.5" fill="#62D2A2" fill-opacity="0.2"/>
<circle cx="332.5" cy="100.5" r="2.5" fill="#62D2A2" fill-opacity="0.2"/>
<circle cx="332.5" cy="114.5" r="2.5" fill="#62D2A2" fill-opacity="0.2"/>
<circle cx="347.5" cy="2.5" r="2.5" fill="#62D2A2" fill-opacity="0.2"/>
<circle cx="347.5" cy="16.5" r="2.5" fill="#62D2A2" fill-opacity="0.2"/>
<circle cx="347.5" cy="30.5" r="2.5" fill="#62D2A2" fill-opacity="0.2"/>
<circle cx="347.5" cy="44.5" r="2.5" fill="#62D2A2" fill-opacity="0.2"/>
<circle cx="347.5" cy="58.5" r="2.5" fill="#62D2A2" fill-opacity="0.2"/>
<circle cx="347.5" cy="72.5" r="2.5" fill="#62D2A2" fill-opacity="0.2"/>
<circle cx="347.5" cy="86.5" r="2.5" fill="#62D2A2" fill-opacity="0.2"/>
<circle cx="347.5" cy="100.5" r="2.5" fill="#62D2A2" fill-opacity="0.2"/>
<circle cx="347.5" cy="114.5" r="2.5" fill="#62D2A2" fill-opacity="0.2"/>
<circle cx="362.5" cy="2.5" r="2.5" fill="#62D2A2" fill-opacity="0.2"/>
<circle cx="362.5" cy="16.5" r="2.5" fill="#62D2A2" fill-opacity="0.2"/>
<circle cx="362.5" cy="30.5" r="2.5" fill="#62D2A2" fill-opacity="0.2"/>
<circle cx="362.5" cy="44.5" r="2.5" fill="#62D2A2" fill-opacity="0.2"/>
<circle cx="362.5" cy="58.5" r="2.5" fill="#62D2A2" fill-opacity="0.2"/>
<circle cx="362.5" cy="72.5" r="2.5" fill="#62D2A2" fill-opacity="0.2"/>
<circle cx="362.5" cy="86.5" r="2.5" fill="#62D2A2" fill-opacity="0.2"/>
<circle cx="362.5" cy="100.5" r="2.5" fill="#62D2A2" fill-opacity="0.2"/>
<circle cx="362.5" cy="114.5" r="2.5" fill="#62D2A2" fill-opacity="0.2"/>
<circle cx="377.5" cy="2.5" r="2.5" fill="#62D2A2" fill-opacity="0.2"/>
<circle cx="377.5" cy="16.5" r="2.5" fill="#62D2A2" fill-opacity="0.2"/>
<circle cx="377.5" cy="30.5" r="2.5" fill="#62D2A2" fill-opacity="0.2"/>
<circle cx="377.5" cy="44.5" r="2.5" fill="#62D2A2" fill-opacity="0.2"/>
<circle cx="377.5" cy="58.5" r="2.5" fill="#62D2A2" fill-opacity="0.2"/>
<circle cx="377.5" cy="72.5" r="2.5" fill="#62D2A2" fill-opacity="0.2"/>
<circle cx="377.5" cy="86.5" r="2.5" fill="#62D2A2" fill-opacity="0.2"/>
<circle cx="377.5" cy="100.5" r="2.5" fill="#62D2A2" fill-opacity="0.2"/>
<circle cx="377.5" cy="114.5" r="2.5" fill="#62D2A2" fill-opacity="0.2"/>
<circle cx="392.5" cy="2.5" r="2.5" fill="#62D2A2" fill-opacity="0.2"/>
<circle cx="392.5" cy="16.5" r="2.5" fill="#62D2A2" fill-opacity="0.2"/>
<circle cx="392.5" cy="30.5" r="2.5" fill="#62D2A2" fill-opacity="0.2"/>
<circle cx="392.5" cy="44.5" r="2.5" fill="#62D2A2" fill-opacity="0.2"/>
<circle cx="392.5" cy="58.5" r="2.5" fill="#62D2A2" fill-opacity="0.2"/>
<circle cx="392.5" cy="72.5" r="2.5" fill="#62D2A2" fill-opacity="0.2"/>
<circle cx="392.5" cy="86.5" r="2.5" fill="#62D2A2" fill-opacity="0.2"/>
<circle cx="392.5" cy="100.5" r="2.5" fill="#62D2A2" fill-opacity="0.2"/>
<circle cx="392.5" cy="114.5" r="2.5" fill="#62D2A2" fill-opacity="0.2"/>
</svg>
